P3
# Created by GIMP version 2.10.24 PNM plug-in
16 16
255
0
255
169
0
255
124
0
255
56
12
255
0
80
255
0
125
255
0
193
255
0
255
249
0
255
181
0
255
136
0
255
68
0
255
0
0
255
0
0
255
0
0
255
0
0
255
0
0
0
255
237
0
255
169
0
255
123
0
255
56
12
255
0
57
255
0
125
255
0
193
255
0
255
249
0
255
204
0
255
136
0
255
68
0
255
0
0
255
0
0
255
0
0
255
0
0
0
205
255
0
255
237
0
255
191
0
255
124
0
255
55
0
255
11
57
255
0
126
255
0
194
255
0
238
255
0
255
204
0
255
136
0
255
68
0
255
23
0
255
0
0
255
0
0
0
137
255
0
205
255
0
250
255
0
255
192
0
255
124
0
255
56
0
255
11
57
255
0
125
255
0
171
255
0
238
255
0
255
204
0
255
136
0
255
91
0
255
23
0
255
0
0
0
69
255
0
137
255
0
182
255
0
250
255
0
255
192
0
255
123
0
255
78
0
255
11
57
255
0
125
255
0
170
255
0
238
255
0
255
203
0
255
158
0
255
91
0
255
23
0
0
1
255
0
69
255
0
114
255
0
182
255
0
251
255
0
255
192
0
255
147
0
255
78
0
255
11
58
255
0
102
255
0
171
255
0
238
255
0
255
227
0
255
158
0
255
91
0
66
0
255
0
1
255
0
46
255
0
114
255
0
183
255
0
250
255
0
255
214
0
255
146
0
255
79
0
255
10
34
255
0
102
255
0
171
255
0
238
255
0
255
226
0
255
159
0
124
0
255
67
0
255
22
0
255
0
47
255
0
115
255
0
182
255
0
228
255
0
255
214
0
255
146
0
255
78
0
255
33
34
255
0
102
255
0
171
255
0
216
255
0
255
226
0
173
0
255
124
0
255
89
0
255
22
0
255
0
46
255
0
115
255
0
160
255
0
227
255
0
255
215
0
255
147
0
255
101
0
255
34
35
255
0
103
255
0
148
255
0
216
255
0
220
0
255
173
0
255
140
0
255
89
0
255
21
0
255
0
47
255
0
92
255
0
160
255
0
227
255
0
255
214
0
255
169
0
255
102
0
255
34
35
255
0
80
255
0
148
255
0
255
0
241
221
0
255
189
0
255
141
0
255
89
0
255
22
0
255
0
24
255
0
92
255
0
160
255
0
227
255
0
255
237
0
255
169
0
255
101
0
255
33
12
255
0
80
255
0
255
0
193
255
0
240
236
0
255
188
0
255
141
0
255
90
0
255
44
0
255
0
24
255
0
92
255
0
160
255
0
206
255
0
255
237
0
255
169
0
255
101
0
255
56
12
255
0
255
0
145
255
0
193
255
0
225
237
0
255
189
0
255
141
0
255
108
0
255
44
0
255
0
24
255
0
92
255
0
137
255
0
205
255
0
255
238
0
255
170
0
255
123
0
255
56
255
0
96
255
0
145
255
0
177
255
0
225
237
0
255
188
0
255
157
0
255
108
0
255
44
0
255
0
24
255
0
70
255
0
137
255
0
205
255
0
255
237
0
255
191
0
255
123
255
0
48
255
0
97
255
0
129
255
0
177
255
0
225
237
0
255
205
0
255
157
0
255
109
0
255
44
0
255
0
1
255
0
69
255
0
137
255
0
205
255
0
250
255
0
255
192
255
0
0
255
0
48
255
0
96
255
0
128
255
0
177
255
0
225
253
0
255
205
0
255
157
0
255
108
0
255
67
0
255
0
2
255
0
69
255
0
137
255
0
183
255
0
251
255
